<svg width="1832" height="740" viewBox="0 0 1832 740" fill="none" xmlns="http://www.w3.org/2000/svg">
<path d="M0.527591 345.179C65.4705 274.473 242.266 151.825 429.906 226.881C664.455 320.7 732.165 566.795 1004.42 654.631C1222.23 724.899 1556.14 519.488 1695.87 407.999M106.571 30.7621C103.937 110.639 148.084 286.666 345.739 351.754C592.808 433.113 1120.75 193.643 1386.34 386.27C1598.81 540.371 1771.45 685.311 1831.2 738.518M19.4466 192.719C87.2031 101.832 280.835 -59.1617 513.312 23.9612C803.908 127.865 900.539 417.077 1218.01 523.024C1471.99 607.782 1698.65 559.91 1780.23 525.379" stroke="rgba(255, 255, 255, .2)" stroke-linecap="round"/>
</svg>
