<svg width="24" height="28" viewBox="0 0 24 28" fill="none" xmlns="http://www.w3.org/2000/svg">
<path d="M20.6244 3.49329L13.291 0.746621C12.531 0.466621 11.291 0.466621 10.531 0.746621L3.1977 3.49329C1.78436 4.02662 0.637695 5.67995 0.637695 7.18662V17.9866C0.637695 19.0666 1.34436 20.4933 2.21103 21.1333L9.54436 26.6133C10.8377 27.5866 12.9577 27.5866 14.251 26.6133L21.5844 21.1333C22.451 20.48 23.1577 19.0666 23.1577 17.9866V7.18662C23.171 5.67995 22.0244 4.02662 20.6244 3.49329ZM16.5444 10.96L10.811 16.6933C10.611 16.8933 10.3577 16.9866 10.1044 16.9866C9.85103 16.9866 9.5977 16.8933 9.3977 16.6933L7.26436 14.5333C6.8777 14.1466 6.8777 13.5066 7.26436 13.12C7.65103 12.7333 8.29103 12.7333 8.6777 13.12L10.1177 14.56L15.1444 9.53329C15.531 9.14662 16.171 9.14662 16.5577 9.53329C16.9444 9.91995 16.9444 10.5733 16.5444 10.96Z" fill="white"/>
</svg>
