<svg width="25" height="24" viewBox="0 0 25 24" fill="none" xmlns="http://www.w3.org/2000/svg">
<path d="M2.71289 12.002C2.71405 16.9214 6.29129 21.1101 11.1499 21.881V14.892H8.61289V12.002H11.1529V9.80204C11.0393 8.75958 11.3954 7.72064 12.1245 6.96698C12.8536 6.21332 13.8802 5.82306 14.9259 5.90204C15.6764 5.91417 16.4251 5.98101 17.1659 6.10205V8.56104H15.9019C15.4667 8.50405 15.0292 8.64777 14.7127 8.95171C14.3961 9.25566 14.2347 9.68693 14.2739 10.124V12.002H17.0449L16.6019 14.893H14.2739V21.881C19.5284 21.0506 23.213 16.2518 22.6584 10.9611C22.1038 5.67041 17.5042 1.73997 12.1917 2.01722C6.87925 2.29447 2.71374 6.68235 2.71289 12.002Z" fill="white"/>
</svg>
