<svg width="25" height="24" viewBox="0 0 25 24" fill="none" xmlns="http://www.w3.org/2000/svg">
<path d="M12.7129 21.0409C10.2529 21.0409 9.96289 21.0279 9.00289 20.9859C8.25426 20.9613 7.51532 20.8091 6.81789 20.5359C5.6112 20.0663 4.65703 19.1117 4.18789 17.9049C3.9252 17.2049 3.78351 16.4654 3.76889 15.7179C3.71289 14.7599 3.71289 14.4459 3.71289 12.0049C3.71289 9.53788 3.72589 9.24988 3.76889 8.29488C3.78383 7.5484 3.92551 6.80989 4.18789 6.11088C4.65652 4.90241 5.61224 3.94706 6.82089 3.47888C7.51953 3.21509 8.25824 3.07303 9.00489 3.05888C9.95989 3.00488 10.2739 3.00488 12.7129 3.00488C15.1929 3.00488 15.4779 3.01788 16.4229 3.05888C17.1715 3.07315 17.9121 3.21519 18.6129 3.47888C19.8212 3.94759 20.7767 4.90276 21.2459 6.11088C21.513 6.82008 21.6554 7.57013 21.6669 8.32788C21.7229 9.28588 21.7229 9.59888 21.7229 12.0389C21.7229 14.4789 21.7089 14.7989 21.6669 15.7459C21.652 16.4941 21.51 17.2343 21.2469 17.9349C20.7766 19.1426 19.821 20.0975 18.6129 20.5669C17.9131 20.8291 17.174 20.9707 16.4269 20.9859C15.4719 21.0409 15.1589 21.0409 12.7129 21.0409ZM12.6789 4.58788C10.2329 4.58788 9.97889 4.59988 9.02389 4.64288C8.45388 4.65043 7.88937 4.75562 7.35489 4.95388C6.56564 5.25589 5.94112 5.87787 5.63589 6.66588C5.4361 7.20618 5.3309 7.77686 5.32489 8.35288C5.27189 9.32188 5.27189 9.57588 5.27189 12.0049C5.27189 14.4049 5.28089 14.6959 5.32489 15.6589C5.33384 16.2291 5.43899 16.7937 5.63589 17.3289C5.94157 18.1164 6.56598 18.7379 7.35489 19.0399C7.88901 19.2395 8.45374 19.3447 9.02389 19.3509C9.99189 19.4069 10.2469 19.4069 12.6789 19.4069C15.1319 19.4069 15.3859 19.3949 16.3329 19.3509C16.9033 19.3439 17.4682 19.2387 18.0029 19.0399C18.7874 18.7353 19.4078 18.1152 19.7129 17.3309C19.9123 16.7901 20.0175 16.2192 20.0239 15.6429H20.0349C20.0779 14.6869 20.0779 14.4319 20.0779 11.9889C20.0779 9.54588 20.0669 9.28888 20.0239 8.33388C20.0149 7.76433 19.9098 7.20039 19.7129 6.66588C19.4085 5.88046 18.788 5.25918 18.0029 4.95388C17.4683 4.75462 16.9033 4.6494 16.3329 4.64288C15.3659 4.58788 15.1129 4.58788 12.6789 4.58788ZM12.7129 16.6239C10.8429 16.6251 9.15631 15.4996 8.43975 13.7723C7.7232 12.0451 8.1178 10.0562 9.43952 8.73334C10.7612 7.41047 12.7498 7.01415 14.4776 7.72921C16.2055 8.44428 17.3325 10.1299 17.3329 11.9999C17.3301 14.5509 15.264 16.6189 12.7129 16.6239ZM12.7129 8.99788C11.056 8.99788 9.71289 10.341 9.71289 11.9979C9.71289 13.6547 11.056 14.9979 12.7129 14.9979C14.3697 14.9979 15.7129 13.6547 15.7129 11.9979C15.709 10.3426 14.3681 9.00173 12.7129 8.99788ZM17.5129 8.28489C16.9183 8.28268 16.4378 7.79947 16.4389 7.20489C16.44 6.61031 16.9223 6.12889 17.5169 6.12889C18.1115 6.12889 18.5938 6.6103 18.5949 7.20488C18.5952 7.49174 18.4812 7.76691 18.2782 7.96956C18.0751 8.17222 17.7998 8.28568 17.5129 8.28489Z" fill="white"/>
</svg>
