<svg width="25" height="24" viewBox="0 0 25 24" fill="none" xmlns="http://www.w3.org/2000/svg">
<path d="M13.7109 21H9.71094V9H13.7109V11C14.5636 9.91525 15.8566 9.26857 17.2359 9.237C19.7165 9.25077 21.7181 11.2694 21.711 13.75V21H17.7109V14.25C17.551 13.1326 16.5927 12.3036 15.4639 12.306C14.9702 12.3216 14.5042 12.5378 14.1734 12.9046C13.8426 13.2715 13.6756 13.7573 13.7109 14.25V21ZM7.71094 21H3.71094V9H7.71094V21ZM5.71094 7C4.60637 7 3.71094 6.10457 3.71094 5C3.71094 3.89543 4.60637 3 5.71094 3C6.81551 3 7.71094 3.89543 7.71094 5C7.71094 5.53043 7.50022 6.03914 7.12515 6.41421C6.75008 6.78929 6.24137 7 5.71094 7Z" fill="white"/>
</svg>
