<svg width="25" height="24" viewBox="0 0 25 24" fill="none" xmlns="http://www.w3.org/2000/svg">
<path d="M12.7109 20.9998C11.4479 19.9224 10.2771 18.7413 9.21094 17.4688C7.61094 15.5578 5.71094 12.7118 5.71094 9.99981C5.70952 7.16735 7.41518 4.6132 10.032 3.5292C12.6488 2.44521 15.661 3.04505 17.6629 5.04881C18.9794 6.35941 19.7169 8.14219 19.711 9.99981C19.711 12.7118 17.8109 15.5578 16.2109 17.4688C15.1448 18.7413 13.974 19.9224 12.7109 20.9998ZM12.7109 6.99981C11.6391 6.99981 10.6488 7.5716 10.1129 8.49981C9.57696 9.42801 9.57696 10.5716 10.1129 11.4998C10.6488 12.428 11.6391 12.9998 12.7109 12.9998C14.3678 12.9998 15.7109 11.6567 15.7109 9.99981C15.7109 8.34295 14.3678 6.99981 12.7109 6.99981Z" fill="white"/>
</svg>
