<svg width="25" height="24" viewBox="0 0 25 24" fill="none" xmlns="http://www.w3.org/2000/svg">
<path d="M19.7084 20C11.1768 20.0121 4.70182 13.4595 4.71095 5.00251C4.71095 4.45023 5.15866 4 5.71095 4H8.3503C8.84588 4 9.26687 4.36413 9.33964 4.85433C9.51405 6.0292 9.85611 7.17297 10.3554 8.2507L10.4582 8.4725C10.6011 8.78091 10.5042 9.14734 10.2276 9.34487C9.41024 9.92859 9.09786 11.1036 9.73463 12.0204C10.5337 13.1708 11.541 14.1779 12.6912 14.9766C13.608 15.6132 14.7827 15.3009 15.3664 14.4836C15.5641 14.2069 15.9307 14.11 16.2393 14.2529L16.4601 14.3552C17.5379 14.8545 18.6818 15.1966 19.8568 15.371C20.347 15.4437 20.7109 15.8647 20.7109 16.3603V19C20.7109 19.5523 20.2621 20 19.7098 20L19.7084 20Z" fill="white"/>
</svg>
