<svg width="25" height="24" viewBox="0 0 25 24" fill="none" xmlns="http://www.w3.org/2000/svg">
<path d="M17.7109 3.5H7.71094C4.71094 3.5 2.71094 5 2.71094 8.5V15.5C2.71094 19 4.71094 20.5 7.71094 20.5H17.7109C20.7109 20.5 22.7109 19 22.7109 15.5V8.5C22.7109 5 20.7109 3.5 17.7109 3.5ZM18.1809 9.59L15.0509 12.09C14.3909 12.62 13.5509 12.88 12.7109 12.88C11.8709 12.88 11.0209 12.62 10.3709 12.09L7.24094 9.59C6.92094 9.33 6.87094 8.85 7.12094 8.53C7.38094 8.21 7.85094 8.15 8.17094 8.41L11.3009 10.91C12.0609 11.52 13.3509 11.52 14.1109 10.91L17.2409 8.41C17.5609 8.15 18.0409 8.2 18.2909 8.53C18.5509 8.85 18.5009 9.33 18.1809 9.59Z" fill="white"/>
</svg>
