<svg width="33" height="33" viewBox="0 0 33 33" fill="none" xmlns="http://www.w3.org/2000/svg">
    <path d="M2.72827 2.70338H5.04586C6.48437 2.70338 7.61652 3.94453 7.49664 5.37252L6.39112 18.6648C6.20465 20.8402 7.92285 22.7085 10.1072 22.7085H24.2925C26.2105 22.7085 27.8887 21.1338 28.0352 19.2253L28.7545 9.21608C28.9143 7.0007 27.2361 5.19902 25.0117 5.19902H7.81631" stroke="#292D32" stroke-width="2" stroke-miterlimit="10" stroke-linecap="round" stroke-linejoin="round"/>
    <path d="M21.7086 29.3948C22.6282 29.3948 23.3736 28.6479 23.3736 27.7265C23.3736 26.8052 22.6282 26.0583 21.7086 26.0583C20.7891 26.0583 20.0437 26.8052 20.0437 27.7265C20.0437 28.6479 20.7891 29.3948 21.7086 29.3948Z" stroke="#292D32" stroke-width="2" stroke-miterlimit="10" stroke-linecap="round" stroke-linejoin="round"/>
    <path d="M11.0531 29.3948C11.9726 29.3948 12.718 28.6479 12.718 27.7265C12.718 26.8052 11.9726 26.0583 11.0531 26.0583C10.1336 26.0583 9.38818 26.8052 9.38818 27.7265C9.38818 28.6479 10.1336 29.3948 11.0531 29.3948Z" stroke="#292D32" stroke-width="2" stroke-miterlimit="10" stroke-linecap="round" stroke-linejoin="round"/>
    <path d="M12.052 10.7108H28.0354" stroke="#292D32" stroke-width="2" stroke-miterlimit="10" stroke-linecap="round" stroke-linejoin="round"/>
</svg>
